<mxfile host="app.diagrams.net" modified="2022-09-01T10:20:07.839Z" agent="5.0 (Windows NT 10.0; Win64; x64) AppleWebKit/537.36 (KHTML, like Gecko) Chrome/104.0.0.0 Safari/537.36" etag="qlX6t2nCNTMg63JsBnnI" version="20.2.7" type="github">
  <diagram id="R2lEEEUBdFMjLlhIrx00" name="Page-1">
    <mxGraphModel dx="1635" dy="893" grid="1" gridSize="10" guides="1" tooltips="1" connect="1" arrows="1" fold="1" page="1" pageScale="1" pageWidth="850" pageHeight="1100" math="0" shadow="0" extFonts="Permanent Marker^https://fonts.googleapis.com/css?family=Permanent+Marker">
      <root>
        <mxCell id="0" />
        <mxCell id="1" parent="0" />
        <mxCell id="XgBxjirRtoSn57IPnDhI-6" value="" style="edgeStyle=orthogonalEdgeStyle;rounded=0;orthogonalLoop=1;jettySize=auto;html=1;" edge="1" parent="1" source="XgBxjirRtoSn57IPnDhI-1" target="XgBxjirRtoSn57IPnDhI-2">
          <mxGeometry relative="1" as="geometry" />
        </mxCell>
        <mxCell id="XgBxjirRtoSn57IPnDhI-1" value="1" style="ellipse;whiteSpace=wrap;html=1;aspect=fixed;" vertex="1" parent="1">
          <mxGeometry x="20" y="231" width="80" height="80" as="geometry" />
        </mxCell>
        <mxCell id="XgBxjirRtoSn57IPnDhI-7" value="" style="edgeStyle=orthogonalEdgeStyle;rounded=0;orthogonalLoop=1;jettySize=auto;html=1;" edge="1" parent="1" source="XgBxjirRtoSn57IPnDhI-2" target="XgBxjirRtoSn57IPnDhI-5">
          <mxGeometry relative="1" as="geometry" />
        </mxCell>
        <mxCell id="XgBxjirRtoSn57IPnDhI-2" value="2" style="ellipse;whiteSpace=wrap;html=1;aspect=fixed;" vertex="1" parent="1">
          <mxGeometry x="170" y="231" width="80" height="80" as="geometry" />
        </mxCell>
        <mxCell id="XgBxjirRtoSn57IPnDhI-3" value="5" style="ellipse;whiteSpace=wrap;html=1;aspect=fixed;" vertex="1" parent="1">
          <mxGeometry x="640" y="231" width="80" height="80" as="geometry" />
        </mxCell>
        <mxCell id="XgBxjirRtoSn57IPnDhI-9" value="" style="edgeStyle=orthogonalEdgeStyle;rounded=0;orthogonalLoop=1;jettySize=auto;html=1;" edge="1" parent="1" source="XgBxjirRtoSn57IPnDhI-4" target="XgBxjirRtoSn57IPnDhI-3">
          <mxGeometry relative="1" as="geometry" />
        </mxCell>
        <mxCell id="XgBxjirRtoSn57IPnDhI-4" value="4" style="ellipse;whiteSpace=wrap;html=1;aspect=fixed;" vertex="1" parent="1">
          <mxGeometry x="480" y="231" width="80" height="80" as="geometry" />
        </mxCell>
        <mxCell id="XgBxjirRtoSn57IPnDhI-8" value="" style="edgeStyle=orthogonalEdgeStyle;rounded=0;orthogonalLoop=1;jettySize=auto;html=1;" edge="1" parent="1" source="XgBxjirRtoSn57IPnDhI-5" target="XgBxjirRtoSn57IPnDhI-4">
          <mxGeometry relative="1" as="geometry" />
        </mxCell>
        <mxCell id="XgBxjirRtoSn57IPnDhI-5" value="3" style="ellipse;whiteSpace=wrap;html=1;aspect=fixed;" vertex="1" parent="1">
          <mxGeometry x="330" y="231" width="80" height="80" as="geometry" />
        </mxCell>
        <mxCell id="XgBxjirRtoSn57IPnDhI-19" value="" style="edgeStyle=orthogonalEdgeStyle;rounded=0;orthogonalLoop=1;jettySize=auto;html=1;" edge="1" parent="1" source="XgBxjirRtoSn57IPnDhI-20" target="XgBxjirRtoSn57IPnDhI-22">
          <mxGeometry relative="1" as="geometry" />
        </mxCell>
        <mxCell id="XgBxjirRtoSn57IPnDhI-20" value="1" style="ellipse;whiteSpace=wrap;html=1;aspect=fixed;" vertex="1" parent="1">
          <mxGeometry x="20" y="370" width="80" height="80" as="geometry" />
        </mxCell>
        <mxCell id="XgBxjirRtoSn57IPnDhI-21" value="" style="edgeStyle=orthogonalEdgeStyle;rounded=0;orthogonalLoop=1;jettySize=auto;html=1;" edge="1" parent="1" source="XgBxjirRtoSn57IPnDhI-22" target="XgBxjirRtoSn57IPnDhI-27">
          <mxGeometry relative="1" as="geometry" />
        </mxCell>
        <mxCell id="XgBxjirRtoSn57IPnDhI-22" value="4" style="ellipse;whiteSpace=wrap;html=1;aspect=fixed;" vertex="1" parent="1">
          <mxGeometry x="170" y="370" width="80" height="80" as="geometry" />
        </mxCell>
        <mxCell id="XgBxjirRtoSn57IPnDhI-23" value="5" style="ellipse;whiteSpace=wrap;html=1;aspect=fixed;" vertex="1" parent="1">
          <mxGeometry x="640" y="370" width="80" height="80" as="geometry" />
        </mxCell>
        <mxCell id="XgBxjirRtoSn57IPnDhI-24" value="" style="edgeStyle=orthogonalEdgeStyle;rounded=0;orthogonalLoop=1;jettySize=auto;html=1;" edge="1" parent="1" source="XgBxjirRtoSn57IPnDhI-25" target="XgBxjirRtoSn57IPnDhI-23">
          <mxGeometry relative="1" as="geometry" />
        </mxCell>
        <mxCell id="XgBxjirRtoSn57IPnDhI-25" value="2" style="ellipse;whiteSpace=wrap;html=1;aspect=fixed;" vertex="1" parent="1">
          <mxGeometry x="480" y="370" width="80" height="80" as="geometry" />
        </mxCell>
        <mxCell id="XgBxjirRtoSn57IPnDhI-26" value="" style="edgeStyle=orthogonalEdgeStyle;rounded=0;orthogonalLoop=1;jettySize=auto;html=1;" edge="1" parent="1" source="XgBxjirRtoSn57IPnDhI-27" target="XgBxjirRtoSn57IPnDhI-25">
          <mxGeometry relative="1" as="geometry" />
        </mxCell>
        <mxCell id="XgBxjirRtoSn57IPnDhI-27" value="3" style="ellipse;whiteSpace=wrap;html=1;aspect=fixed;" vertex="1" parent="1">
          <mxGeometry x="330" y="370" width="80" height="80" as="geometry" />
        </mxCell>
        <mxCell id="XgBxjirRtoSn57IPnDhI-28" value="&lt;h1&gt;Solution&lt;/h1&gt;&lt;p&gt;&lt;/p&gt;&lt;ul&gt;&lt;li&gt;Traverse Linked List until we get to p - 1&lt;/li&gt;&lt;ul&gt;&lt;li&gt;We do p - 1 because index starts from 0th index&lt;/li&gt;&lt;/ul&gt;&lt;li&gt;Reverse Linked List while &amp;gt;= p and &amp;lt;= q&lt;/li&gt;&lt;/ul&gt;&lt;p&gt;&lt;/p&gt;" style="text;html=1;strokeColor=none;fillColor=none;spacing=5;spacingTop=-20;whiteSpace=wrap;overflow=hidden;rounded=0;" vertex="1" parent="1">
          <mxGeometry x="30" y="510" width="370" height="230" as="geometry" />
        </mxCell>
      </root>
    </mxGraphModel>
  </diagram>
</mxfile>
